<svg xmlns="http://www.w3.org/2000/svg" viewBox="3189 856 10 10">
  <defs>
    <style>
      .cls-1 {
        fill: #6f7878;
      }
    </style>
  </defs>
  <g id="Group_649" data-name="Group 649" transform="translate(3189 856)">
    <path id="Path_1" data-name="Path 1" class="cls-1" d="M8.818,1.182A4.171,4.171,0,0,0,3,1.182,4.205,4.205,0,0,0,1.818,4.091a1.865,1.865,0,0,0,.045.5,2.251,2.251,0,0,0-1.182.591A2.132,2.132,0,0,0,0,6.773,2.194,2.194,0,0,0,.636,8.364L2.273,10V8.909a2.089,2.089,0,0,0,1.545-.636l.409-.545a3.579,3.579,0,0,0,1.682.455V10L8.818,7A4.123,4.123,0,0,0,10,4.091,4.205,4.205,0,0,0,8.818,1.182ZM8.136,6.364,6.818,7.727V7.273H5.909a3.98,3.98,0,0,1-1.455-.318V6.818a2.491,2.491,0,0,0-.636-1.591,2.108,2.108,0,0,0-1.045-.545,2.8,2.8,0,0,1-.045-.591,3.312,3.312,0,0,1,.909-2.273A3.2,3.2,0,0,1,5.909.909a3.274,3.274,0,0,1,2.273.909,3.119,3.119,0,0,1,.909,2.273A3.128,3.128,0,0,1,8.136,6.364Z" transform="translate(0)"/>
  </g>
</svg>
